<?xml version="1.0" encoding="UTF-8"?>
<svg xmlns="http://www.w3.org/2000/svg" xmlns:xlink="http://www.w3.org/1999/xlink" version="1.1" viewBox="0 0 42 42">
  <defs>
    <style>
      .cls-1 {
        fill: url(#_未命名的渐变_2);
      }

      .cls-2 {
        fill: url(#_未命名的渐变_6);
      }

      .cls-3 {
        fill: url(#_未命名的渐变_7);
      }

      .cls-4 {
        fill: url(#_未命名的渐变_6-3);
      }

      .cls-5 {
        fill: url(#_未命名的渐变_6-2);
      }

      .cls-6 {
        fill: url(#_未命名的渐变_6-4);
      }

      .cls-7 {
        fill: url(#_未命名的渐变_7-2);
      }

      .cls-8 {
        isolation: isolate;
      }
    </style>
    <linearGradient id="_未命名的渐变_2" data-name="未命名的渐变 2" x1="20.6" y1="43.1" x2="20.6" y2="3.1" gradientTransform="translate(0 44) scale(1 -1)" gradientUnits="userSpaceOnUse">
      <stop offset="0" stop-color="#39affe"/>
      <stop offset=".8" stop-color="#084aff"/>
    </linearGradient>
    <linearGradient id="_未命名的渐变_6" data-name="未命名的渐变 6" x1="14.7" y1="18.3" x2="14.7" y2="33.5" gradientTransform="translate(0 44) scale(1 -1)" gradientUnits="userSpaceOnUse">
      <stop offset="0" stop-color="#f0f9ff"/>
      <stop offset=".8" stop-color="#b2d9ff"/>
    </linearGradient>
    <linearGradient id="_未命名的渐变_6-2" data-name="未命名的渐变 6" x1="14.7" y1="33.5" x2="14.7" y2="18.3" xlink:href="#_未命名的渐变_6"/>
    <linearGradient id="_未命名的渐变_6-3" data-name="未命名的渐变 6" x1="16.1" y1="18.5" x2="16.1" y2="33" xlink:href="#_未命名的渐变_6"/>
    <linearGradient id="_未命名的渐变_7" data-name="未命名的渐变 7" x1="14.5" y1="23.4" x2="29.1" y2="23.4" gradientTransform="translate(0 44) scale(1 -1)" gradientUnits="userSpaceOnUse">
      <stop offset=".2" stop-color="#f0f9ff"/>
      <stop offset="1" stop-color="#b2d9ff"/>
    </linearGradient>
    <linearGradient id="_未命名的渐变_6-4" data-name="未命名的渐变 6" x1="20" y1="32.4" x2="20" y2="15.5" xlink:href="#_未命名的渐变_6"/>
    <linearGradient id="_未命名的渐变_7-2" data-name="未命名的渐变 7" x1="14.5" y1="23.4" x2="29.1" y2="23.4" xlink:href="#_未命名的渐变_7"/>
  </defs>
  <!-- Generator: Adobe Illustrator 28.6.0, SVG Export Plug-In . SVG Version: 1.2.0 Build 709)  -->
  <g>
    <g id="_图层_1" data-name="图层_1">
      <path class="cls-1" d="M38.7,19.1C38.7,9,30.6.9,20.6.9S2.5,9,2.5,19.1s4.7,14.1,11.3,16.8h0c.8.4,1.3.6,1.3,1.3,0,.7-1,2.3-.1,3.2.8.9,5.6.8,10.8-1.7,5-2.4,9.4-6.8,11.5-12.6.9-2.1,1.3-4.4,1.3-6.9Z"/>
      <image class="cls-8" width="338" height="371" transform="translate(-23.5 -23.7) scale(.2)" xlink:href="未标题-1-1.png"/>
      <image class="cls-8" width="367" height="392" transform="translate(-19.9 -24) scale(.2)" xlink:href="未标题-1-2.png"/>
      <path class="cls-2" d="M13.8,11c-.7-.3-1.3-.5-1.6-.5-1.4-.2-1.2,0-1.2.9,0,0,0,2.2,0,6.8s3.9,6.9,5.5,7.2c1.4.3,1.8.2,1.9,0,0,0,0-.1,0-.2v-7.7c0-3.7-2.6-5.7-4.6-6.5Z"/>
      <path class="cls-5" d="M16.5,25.5c1.4.3,1.8.2,1.9,0-5.1-1.8-4.5-7.3-4.5-9.4v-5.1c-.7-.3-1.3-.5-1.6-.5-1.4-.2-1.2,0-1.2.9,0,0,0,2.2,0,6.8s3.9,6.9,5.5,7.2Z"/>
      <path class="cls-4" d="M18.4,25.5c0,0,0-.1,0-.2v-7.7c0-3.7-2.6-5.7-4.6-6.5v5.1c0,2.1-.6,7.6,4.5,9.4Z"/>
      <path class="cls-3" d="M28.6,10.5c-1.4.2-2.5.6-3.4,1.1-3.2,1.8-3.6,4.9-3.6,6.8,0,0,0,.2,0,4.7s-1.2,3.4-2.2,4.2c-1.7,1.3-3.6,1.1-4.1,1-.2,0-.4,0-.6,0-.3,0-.4.2,0,.7,1.3,1.2,4.3,2.3,7.4,1.7,5.3-1.3,6.9-5.9,6.9-8.6v-10.6c0-.7,0-1-.5-.9Z"/>
      <path class="cls-6" d="M23.4,26c.8-.9,1.8-2.6,1.8-5.3v-9.1c-3.2,1.8-3.6,4.9-3.6,6.8,0,0,0,.2,0,4.7s-1.2,3.4-2.2,4.2c-1.7,1.3-3.6,1.1-4.1,1-.2,0-.4,0-.6,0,2,.4,5.5,1.2,8.6-2.2Z"/>
      <path class="cls-7" d="M14.8,28.8c1.3,1.2,4.3,2.3,7.4,1.7,5.3-1.3,6.9-5.9,6.9-8.6v-10.6c0-.7,0-1-.5-.9-1.4.2-2.5.6-3.4,1.1v9.1c0,2.7-1,4.4-1.8,5.3-3.1,3.4-6.6,2.6-8.6,2.2-.3,0-.4.2,0,.7Z"/>
    </g>
  </g>
</svg>